<?xml version="1.0" encoding="UTF-8" standalone="no"?>
<!DOCTYPE svg PUBLIC "-//W3C//DTD SVG 1.1//EN"
 "http://www.w3.org/Graphics/SVG/1.1/DTD/svg11.dtd">
<!-- Generated by graphviz version 2.43.0 (0)
 -->
<!-- Title: G Pages: 1 -->
<svg width="1798pt" height="399pt"
 viewBox="0.00 0.00 1797.79 399.30" xmlns="http://www.w3.org/2000/svg" xmlns:xlink="http://www.w3.org/1999/xlink">
<g id="graph0" class="graph" transform="scale(1 1) rotate(0) translate(21.6 377.7)">
<title>G</title>
<polygon fill="#111111" stroke="transparent" points="-21.6,21.6 -21.6,-377.7 1776.19,-377.7 1776.19,21.6 -21.6,21.6"/>
<!-- App.css -->
<g id="node1" class="node">
<title>App.css</title>
<path fill="none" stroke="#cfffac" d="M313.53,-356.15C313.53,-356.15 264.06,-356.15 264.06,-356.15 260.02,-356.15 255.99,-352.12 255.99,-348.08 255.99,-348.08 255.99,-340.02 255.99,-340.02 255.99,-335.98 260.02,-331.95 264.06,-331.95 264.06,-331.95 313.53,-331.95 313.53,-331.95 317.56,-331.95 321.59,-335.98 321.59,-340.02 321.59,-340.02 321.59,-348.08 321.59,-348.08 321.59,-352.12 317.56,-356.15 313.53,-356.15"/>
<text text-anchor="middle" x="288.79" y="-340.9" font-family="Arial" font-size="14.00" fill="#cfffac">App.css</text>
</g>
<!-- App.js -->
<g id="node2" class="node">
<title>App.js</title>
<path fill="none" stroke="#c6c5fe" d="M46.8,-254.15C46.8,-254.15 8.11,-254.15 8.11,-254.15 4.08,-254.15 0.04,-250.12 0.04,-246.08 0.04,-246.08 0.04,-238.02 0.04,-238.02 0.04,-233.98 4.08,-229.95 8.11,-229.95 8.11,-229.95 46.8,-229.95 46.8,-229.95 50.83,-229.95 54.87,-233.98 54.87,-238.02 54.87,-238.02 54.87,-246.08 54.87,-246.08 54.87,-250.12 50.83,-254.15 46.8,-254.15"/>
<text text-anchor="middle" x="27.46" y="-238.9" font-family="Arial" font-size="14.00" fill="#c6c5fe">App.js</text>
</g>
<!-- App.js&#45;&gt;App.css -->
<g id="edge1" class="edge">
<title>App.js&#45;&gt;App.css</title>
<path fill="none" stroke="#757575" d="M33.88,-254.18C42.82,-272.61 62.55,-307.18 90.91,-323.05 138.89,-349.89 203.77,-351.39 245.7,-348.74"/>
<polygon fill="#757575" stroke="#757575" points="246.13,-352.21 255.85,-347.99 245.61,-345.23 246.13,-352.21"/>
</g>
<!-- components/header/header.component.jsx -->
<g id="node3" class="node">
<title>components/header/header.component.jsx</title>
<path fill="none" stroke="#c6c5fe" d="M420.85,-314.15C420.85,-314.15 156.74,-314.15 156.74,-314.15 152.71,-314.15 148.67,-310.12 148.67,-306.08 148.67,-306.08 148.67,-298.02 148.67,-298.02 148.67,-293.98 152.71,-289.95 156.74,-289.95 156.74,-289.95 420.85,-289.95 420.85,-289.95 424.88,-289.95 428.91,-293.98 428.91,-298.02 428.91,-298.02 428.91,-306.08 428.91,-306.08 428.91,-310.12 424.88,-314.15 420.85,-314.15"/>
<text text-anchor="middle" x="288.79" y="-298.9" font-family="Arial" font-size="14.00" fill="#c6c5fe">components/header/header.component.jsx</text>
</g>
<!-- App.js&#45;&gt;components/header/header.component.jsx -->
<g id="edge2" class="edge">
<title>App.js&#45;&gt;components/header/header.component.jsx</title>
<path fill="none" stroke="#757575" d="M46.5,-254.2C58.56,-261.71 75.06,-270.89 90.91,-276.05 106.11,-281 122.27,-285.01 138.53,-288.26"/>
<polygon fill="#757575" stroke="#757575" points="138.19,-291.76 148.67,-290.19 139.5,-284.88 138.19,-291.76"/>
</g>
<!-- firebase/firebase.utils.js -->
<g id="node4" class="node">
<title>firebase/firebase.utils.js</title>
<path fill="none" stroke="#cfffac" d="M1244.56,-318.15C1244.56,-318.15 1098.11,-318.15 1098.11,-318.15 1094.08,-318.15 1090.04,-314.12 1090.04,-310.08 1090.04,-310.08 1090.04,-302.02 1090.04,-302.02 1090.04,-297.98 1094.08,-293.95 1098.11,-293.95 1098.11,-293.95 1244.56,-293.95 1244.56,-293.95 1248.59,-293.95 1252.62,-297.98 1252.62,-302.02 1252.62,-302.02 1252.62,-310.08 1252.62,-310.08 1252.62,-314.12 1248.59,-318.15 1244.56,-318.15"/>
<text text-anchor="middle" x="1171.33" y="-302.9" font-family="Arial" font-size="14.00" fill="#cfffac">firebase/firebase.utils.js</text>
</g>
<!-- App.js&#45;&gt;firebase/firebase.utils.js -->
<g id="edge3" class="edge">
<title>App.js&#45;&gt;firebase/firebase.utils.js</title>
<path fill="none" stroke="#757575" d="M54.93,-242.53C164.06,-244.64 589.74,-254.22 938.64,-281.05 954.7,-282.28 958.64,-283.3 974.64,-285.05 1008.97,-288.8 1046.68,-292.86 1079.77,-296.4"/>
<polygon fill="#757575" stroke="#757575" points="1079.56,-299.9 1089.87,-297.48 1080.3,-292.94 1079.56,-299.9"/>
</g>
<!-- pages/homepage/homepage.component.js -->
<g id="node5" class="node">
<title>pages/homepage/homepage.component.js</title>
<path fill="none" stroke="#c6c5fe" d="M421.64,-150.15C421.64,-150.15 155.95,-150.15 155.95,-150.15 151.91,-150.15 147.88,-146.12 147.88,-142.08 147.88,-142.08 147.88,-134.02 147.88,-134.02 147.88,-129.98 151.91,-125.95 155.95,-125.95 155.95,-125.95 421.64,-125.95 421.64,-125.95 425.67,-125.95 429.7,-129.98 429.7,-134.02 429.7,-134.02 429.7,-142.08 429.7,-142.08 429.7,-146.12 425.67,-150.15 421.64,-150.15"/>
<text text-anchor="middle" x="288.79" y="-134.9" font-family="Arial" font-size="14.00" fill="#c6c5fe">pages/homepage/homepage.component.js</text>
</g>
<!-- App.js&#45;&gt;pages/homepage/homepage.component.js -->
<g id="edge4" class="edge">
<title>App.js&#45;&gt;pages/homepage/homepage.component.js</title>
<path fill="none" stroke="#757575" d="M44.18,-229.99C56.4,-221.06 74.05,-209.09 90.91,-201.05 134.95,-180.03 187.75,-163.57 227.58,-152.75"/>
<polygon fill="#757575" stroke="#757575" points="228.66,-156.08 237.42,-150.12 226.85,-149.32 228.66,-156.08"/>
</g>
<!-- pages/shop/shop.component.jsx -->
<g id="node6" class="node">
<title>pages/shop/shop.component.jsx</title>
<path fill="none" stroke="#c6c5fe" d="M389.03,-66.15C389.03,-66.15 188.56,-66.15 188.56,-66.15 184.53,-66.15 180.49,-62.12 180.49,-58.08 180.49,-58.08 180.49,-50.02 180.49,-50.02 180.49,-45.98 184.53,-41.95 188.56,-41.95 188.56,-41.95 389.03,-41.95 389.03,-41.95 393.06,-41.95 397.09,-45.98 397.09,-50.02 397.09,-50.02 397.09,-58.08 397.09,-58.08 397.09,-62.12 393.06,-66.15 389.03,-66.15"/>
<text text-anchor="middle" x="288.79" y="-50.9" font-family="Arial" font-size="14.00" fill="#c6c5fe">pages/shop/shop.component.jsx</text>
</g>
<!-- App.js&#45;&gt;pages/shop/shop.component.jsx -->
<g id="edge5" class="edge">
<title>App.js&#45;&gt;pages/shop/shop.component.jsx</title>
<path fill="none" stroke="#757575" d="M31.19,-229.77C37.38,-204.83 54.81,-147.99 90.91,-117.05 119.31,-92.71 157.2,-77.75 192.17,-68.56"/>
<polygon fill="#757575" stroke="#757575" points="193.09,-71.94 201.94,-66.12 191.39,-65.15 193.09,-71.94"/>
</g>
<!-- pages/sign&#45;in&#45;and&#45;sign&#45;up/sign&#45;in&#45;and&#45;sign&#45;up.component.jsx -->
<g id="node7" class="node">
<title>pages/sign&#45;in&#45;and&#45;sign&#45;up/sign&#45;in&#45;and&#45;sign&#45;up.component.jsx</title>
<path fill="none" stroke="#c6c5fe" d="M478.49,-234.15C478.49,-234.15 99.09,-234.15 99.09,-234.15 95.06,-234.15 91.03,-230.12 91.03,-226.08 91.03,-226.08 91.03,-218.02 91.03,-218.02 91.03,-213.98 95.06,-209.95 99.09,-209.95 99.09,-209.95 478.49,-209.95 478.49,-209.95 482.52,-209.95 486.56,-213.98 486.56,-218.02 486.56,-218.02 486.56,-226.08 486.56,-226.08 486.56,-230.12 482.52,-234.15 478.49,-234.15"/>
<text text-anchor="middle" x="288.79" y="-218.9" font-family="Arial" font-size="14.00" fill="#c6c5fe">pages/sign&#45;in&#45;and&#45;sign&#45;up/sign&#45;in&#45;and&#45;sign&#45;up.component.jsx</text>
</g>
<!-- App.js&#45;&gt;pages/sign&#45;in&#45;and&#45;sign&#45;up/sign&#45;in&#45;and&#45;sign&#45;up.component.jsx -->
<g id="edge6" class="edge">
<title>App.js&#45;&gt;pages/sign&#45;in&#45;and&#45;sign&#45;up/sign&#45;in&#45;and&#45;sign&#45;up.component.jsx</title>
<path fill="none" stroke="#757575" d="M55.23,-239.98C72.14,-238.68 95.56,-236.87 121.08,-234.91"/>
<polygon fill="#757575" stroke="#757575" points="121.63,-238.37 131.34,-234.12 121.1,-231.39 121.63,-238.37"/>
</g>
<!-- assets/crown.svg -->
<g id="node8" class="node">
<title>assets/crown.svg</title>
<path fill="none" stroke="#cfffac" d="M784.47,-356.15C784.47,-356.15 676.85,-356.15 676.85,-356.15 672.82,-356.15 668.79,-352.12 668.79,-348.08 668.79,-348.08 668.79,-340.02 668.79,-340.02 668.79,-335.98 672.82,-331.95 676.85,-331.95 676.85,-331.95 784.47,-331.95 784.47,-331.95 788.5,-331.95 792.53,-335.98 792.53,-340.02 792.53,-340.02 792.53,-348.08 792.53,-348.08 792.53,-352.12 788.5,-356.15 784.47,-356.15"/>
<text text-anchor="middle" x="730.66" y="-340.9" font-family="Arial" font-size="14.00" fill="#cfffac">assets/crown.svg</text>
</g>
<!-- components/header/header.component.jsx&#45;&gt;assets/crown.svg -->
<g id="edge14" class="edge">
<title>components/header/header.component.jsx&#45;&gt;assets/crown.svg</title>
<path fill="none" stroke="#757575" d="M416.13,-314.11C494.92,-321.64 593.41,-331.04 658.76,-337.28"/>
<polygon fill="#757575" stroke="#757575" points="658.66,-340.79 668.95,-338.25 659.33,-333.82 658.66,-340.79"/>
</g>
<!-- components/header/header.styles.scss -->
<g id="node20" class="node">
<title>components/header/header.styles.scss</title>
<path fill="none" stroke="#cfffac" d="M851.62,-314.15C851.62,-314.15 609.7,-314.15 609.7,-314.15 605.67,-314.15 601.63,-310.12 601.63,-306.08 601.63,-306.08 601.63,-298.02 601.63,-298.02 601.63,-293.98 605.67,-289.95 609.7,-289.95 609.7,-289.95 851.62,-289.95 851.62,-289.95 855.65,-289.95 859.69,-293.98 859.69,-298.02 859.69,-298.02 859.69,-306.08 859.69,-306.08 859.69,-310.12 855.65,-314.15 851.62,-314.15"/>
<text text-anchor="middle" x="730.66" y="-298.9" font-family="Arial" font-size="14.00" fill="#cfffac">components/header/header.styles.scss</text>
</g>
<!-- components/header/header.component.jsx&#45;&gt;components/header/header.styles.scss -->
<g id="edge15" class="edge">
<title>components/header/header.component.jsx&#45;&gt;components/header/header.styles.scss</title>
<path fill="none" stroke="#757575" d="M428.97,-302.05C480.76,-302.05 539.5,-302.05 591.22,-302.05"/>
<polygon fill="#757575" stroke="#757575" points="591.47,-305.55 601.47,-302.05 591.47,-298.55 591.47,-305.55"/>
</g>
<!-- components/directory/directory.component.jsx -->
<g id="node15" class="node">
<title>components/directory/directory.component.jsx</title>
<path fill="none" stroke="#c6c5fe" d="M872.63,-150.15C872.63,-150.15 588.69,-150.15 588.69,-150.15 584.66,-150.15 580.63,-146.12 580.63,-142.08 580.63,-142.08 580.63,-134.02 580.63,-134.02 580.63,-129.98 584.66,-125.95 588.69,-125.95 588.69,-125.95 872.63,-125.95 872.63,-125.95 876.66,-125.95 880.69,-129.98 880.69,-134.02 880.69,-134.02 880.69,-142.08 880.69,-142.08 880.69,-146.12 876.66,-150.15 872.63,-150.15"/>
<text text-anchor="middle" x="730.66" y="-134.9" font-family="Arial" font-size="14.00" fill="#c6c5fe">components/directory/directory.component.jsx</text>
</g>
<!-- pages/homepage/homepage.component.js&#45;&gt;components/directory/directory.component.jsx -->
<g id="edge21" class="edge">
<title>pages/homepage/homepage.component.js&#45;&gt;components/directory/directory.component.jsx</title>
<path fill="none" stroke="#757575" d="M429.57,-138.05C474.34,-138.05 524.23,-138.05 570.29,-138.05"/>
<polygon fill="#757575" stroke="#757575" points="570.36,-141.55 580.36,-138.05 570.36,-134.55 570.36,-141.55"/>
</g>
<!-- pages/homepage/homepage.styles.scss -->
<g id="node24" class="node">
<title>pages/homepage/homepage.styles.scss</title>
<path fill="none" stroke="#cfffac" d="M855.41,-108.15C855.41,-108.15 605.91,-108.15 605.91,-108.15 601.87,-108.15 597.84,-104.12 597.84,-100.08 597.84,-100.08 597.84,-92.02 597.84,-92.02 597.84,-87.98 601.87,-83.95 605.91,-83.95 605.91,-83.95 855.41,-83.95 855.41,-83.95 859.45,-83.95 863.48,-87.98 863.48,-92.02 863.48,-92.02 863.48,-100.08 863.48,-100.08 863.48,-104.12 859.45,-108.15 855.41,-108.15"/>
<text text-anchor="middle" x="730.66" y="-92.9" font-family="Arial" font-size="14.00" fill="#cfffac">pages/homepage/homepage.styles.scss</text>
</g>
<!-- pages/homepage/homepage.component.js&#45;&gt;pages/homepage/homepage.styles.scss -->
<g id="edge22" class="edge">
<title>pages/homepage/homepage.component.js&#45;&gt;pages/homepage/homepage.styles.scss</title>
<path fill="none" stroke="#757575" d="M416.13,-125.99C471.57,-120.69 536.75,-114.47 593.29,-109.07"/>
<polygon fill="#757575" stroke="#757575" points="593.75,-112.54 603.37,-108.11 593.09,-105.57 593.75,-112.54"/>
</g>
<!-- components/collection&#45;preview/collection&#45;preview.component.jsx -->
<g id="node11" class="node">
<title>components/collection&#45;preview/collection&#45;preview.component.jsx</title>
<path fill="none" stroke="#c6c5fe" d="M930.56,-66.15C930.56,-66.15 530.75,-66.15 530.75,-66.15 526.72,-66.15 522.69,-62.12 522.69,-58.08 522.69,-58.08 522.69,-50.02 522.69,-50.02 522.69,-45.98 526.72,-41.95 530.75,-41.95 530.75,-41.95 930.56,-41.95 930.56,-41.95 934.6,-41.95 938.63,-45.98 938.63,-50.02 938.63,-50.02 938.63,-58.08 938.63,-58.08 938.63,-62.12 934.6,-66.15 930.56,-66.15"/>
<text text-anchor="middle" x="730.66" y="-50.9" font-family="Arial" font-size="14.00" fill="#c6c5fe">components/collection&#45;preview/collection&#45;preview.component.jsx</text>
</g>
<!-- pages/shop/shop.component.jsx&#45;&gt;components/collection&#45;preview/collection&#45;preview.component.jsx -->
<g id="edge23" class="edge">
<title>pages/shop/shop.component.jsx&#45;&gt;components/collection&#45;preview/collection&#45;preview.component.jsx</title>
<path fill="none" stroke="#757575" d="M397.11,-54.05C432.05,-54.05 472.17,-54.05 512.19,-54.05"/>
<polygon fill="#757575" stroke="#757575" points="512.36,-57.55 522.36,-54.05 512.36,-50.55 512.36,-57.55"/>
</g>
<!-- pages/shop/shop.data.js -->
<g id="node25" class="node">
<title>pages/shop/shop.data.js</title>
<path fill="none" stroke="#cfffac" d="M806.37,-24.15C806.37,-24.15 654.95,-24.15 654.95,-24.15 650.91,-24.15 646.88,-20.12 646.88,-16.08 646.88,-16.08 646.88,-8.02 646.88,-8.02 646.88,-3.98 650.91,0.05 654.95,0.05 654.95,0.05 806.37,0.05 806.37,0.05 810.4,0.05 814.44,-3.98 814.44,-8.02 814.44,-8.02 814.44,-16.08 814.44,-16.08 814.44,-20.12 810.4,-24.15 806.37,-24.15"/>
<text text-anchor="middle" x="730.66" y="-8.9" font-family="Arial" font-size="14.00" fill="#cfffac">pages/shop/shop.data.js</text>
</g>
<!-- pages/shop/shop.component.jsx&#45;&gt;pages/shop/shop.data.js -->
<g id="edge24" class="edge">
<title>pages/shop/shop.component.jsx&#45;&gt;pages/shop/shop.data.js</title>
<path fill="none" stroke="#757575" d="M397.11,-43.8C470.44,-36.8 566.64,-27.62 636.69,-20.93"/>
<polygon fill="#757575" stroke="#757575" points="637.21,-24.39 646.83,-19.96 636.55,-17.42 637.21,-24.39"/>
</g>
<!-- components/sign&#45;in/sign&#45;in.component.jsx -->
<g id="node22" class="node">
<title>components/sign&#45;in/sign&#45;in.component.jsx</title>
<path fill="none" stroke="#c6c5fe" d="M860.78,-234.15C860.78,-234.15 600.54,-234.15 600.54,-234.15 596.5,-234.15 592.47,-230.12 592.47,-226.08 592.47,-226.08 592.47,-218.02 592.47,-218.02 592.47,-213.98 596.5,-209.95 600.54,-209.95 600.54,-209.95 860.78,-209.95 860.78,-209.95 864.81,-209.95 868.85,-213.98 868.85,-218.02 868.85,-218.02 868.85,-226.08 868.85,-226.08 868.85,-230.12 864.81,-234.15 860.78,-234.15"/>
<text text-anchor="middle" x="730.66" y="-218.9" font-family="Arial" font-size="14.00" fill="#c6c5fe">components/sign&#45;in/sign&#45;in.component.jsx</text>
</g>
<!-- pages/sign&#45;in&#45;and&#45;sign&#45;up/sign&#45;in&#45;and&#45;sign&#45;up.component.jsx&#45;&gt;components/sign&#45;in/sign&#45;in.component.jsx -->
<g id="edge25" class="edge">
<title>pages/sign&#45;in&#45;and&#45;sign&#45;up/sign&#45;in&#45;and&#45;sign&#45;up.component.jsx&#45;&gt;components/sign&#45;in/sign&#45;in.component.jsx</title>
<path fill="none" stroke="#757575" d="M486.57,-222.05C518.63,-222.05 551.35,-222.05 581.97,-222.05"/>
<polygon fill="#757575" stroke="#757575" points="582.27,-225.55 592.27,-222.05 582.27,-218.55 582.27,-225.55"/>
</g>
<!-- pages/sign&#45;in&#45;and&#45;sign&#45;up/sign&#45;in&#45;and&#45;sign&#45;up.styles.scss -->
<g id="node26" class="node">
<title>pages/sign&#45;in&#45;and&#45;sign&#45;up/sign&#45;in&#45;and&#45;sign&#45;up.styles.scss</title>
<path fill="none" stroke="#cfffac" d="M909.26,-192.15C909.26,-192.15 552.05,-192.15 552.05,-192.15 548.02,-192.15 543.99,-188.12 543.99,-184.08 543.99,-184.08 543.99,-176.02 543.99,-176.02 543.99,-171.98 548.02,-167.95 552.05,-167.95 552.05,-167.95 909.26,-167.95 909.26,-167.95 913.3,-167.95 917.33,-171.98 917.33,-176.02 917.33,-176.02 917.33,-184.08 917.33,-184.08 917.33,-188.12 913.3,-192.15 909.26,-192.15"/>
<text text-anchor="middle" x="730.66" y="-176.9" font-family="Arial" font-size="14.00" fill="#cfffac">pages/sign&#45;in&#45;and&#45;sign&#45;up/sign&#45;in&#45;and&#45;sign&#45;up.styles.scss</text>
</g>
<!-- pages/sign&#45;in&#45;and&#45;sign&#45;up/sign&#45;in&#45;and&#45;sign&#45;up.component.jsx&#45;&gt;pages/sign&#45;in&#45;and&#45;sign&#45;up/sign&#45;in&#45;and&#45;sign&#45;up.styles.scss -->
<g id="edge26" class="edge">
<title>pages/sign&#45;in&#45;and&#45;sign&#45;up/sign&#45;in&#45;and&#45;sign&#45;up.component.jsx&#45;&gt;pages/sign&#45;in&#45;and&#45;sign&#45;up/sign&#45;in&#45;and&#45;sign&#45;up.styles.scss</title>
<path fill="none" stroke="#757575" d="M416.13,-209.99C471.57,-204.69 536.75,-198.47 593.29,-193.07"/>
<polygon fill="#757575" stroke="#757575" points="593.75,-196.54 603.37,-192.11 593.09,-189.57 593.75,-196.54"/>
</g>
<!-- components/collection&#45;item/collection&#45;item.jsx -->
<g id="node9" class="node">
<title>components/collection&#45;item/collection&#45;item.jsx</title>
<path fill="none" stroke="#c6c5fe" d="M1313.27,-66.15C1313.27,-66.15 1029.4,-66.15 1029.4,-66.15 1025.37,-66.15 1021.33,-62.12 1021.33,-58.08 1021.33,-58.08 1021.33,-50.02 1021.33,-50.02 1021.33,-45.98 1025.37,-41.95 1029.4,-41.95 1029.4,-41.95 1313.27,-41.95 1313.27,-41.95 1317.3,-41.95 1321.33,-45.98 1321.33,-50.02 1321.33,-50.02 1321.33,-58.08 1321.33,-58.08 1321.33,-62.12 1317.3,-66.15 1313.27,-66.15"/>
<text text-anchor="middle" x="1171.33" y="-50.9" font-family="Arial" font-size="14.00" fill="#c6c5fe">components/collection&#45;item/collection&#45;item.jsx</text>
</g>
<!-- components/collection&#45;item/collection&#45;item.styles.scss -->
<g id="node10" class="node">
<title>components/collection&#45;item/collection&#45;item.styles.scss</title>
<path fill="none" stroke="#cfffac" d="M1746.3,-66.15C1746.3,-66.15 1412.31,-66.15 1412.31,-66.15 1408.27,-66.15 1404.24,-62.12 1404.24,-58.08 1404.24,-58.08 1404.24,-50.02 1404.24,-50.02 1404.24,-45.98 1408.27,-41.95 1412.31,-41.95 1412.31,-41.95 1746.3,-41.95 1746.3,-41.95 1750.34,-41.95 1754.37,-45.98 1754.37,-50.02 1754.37,-50.02 1754.37,-58.08 1754.37,-58.08 1754.37,-62.12 1750.34,-66.15 1746.3,-66.15"/>
<text text-anchor="middle" x="1579.3" y="-50.9" font-family="Arial" font-size="14.00" fill="#cfffac">components/collection&#45;item/collection&#45;item.styles.scss</text>
</g>
<!-- components/collection&#45;item/collection&#45;item.jsx&#45;&gt;components/collection&#45;item/collection&#45;item.styles.scss -->
<g id="edge7" class="edge">
<title>components/collection&#45;item/collection&#45;item.jsx&#45;&gt;components/collection&#45;item/collection&#45;item.styles.scss</title>
<path fill="none" stroke="#757575" d="M1321.48,-54.05C1345.14,-54.05 1369.85,-54.05 1394.19,-54.05"/>
<polygon fill="#757575" stroke="#757575" points="1394.23,-57.55 1404.23,-54.05 1394.23,-50.55 1394.23,-57.55"/>
</g>
<!-- components/collection&#45;preview/collection&#45;preview.component.jsx&#45;&gt;components/collection&#45;item/collection&#45;item.jsx -->
<g id="edge8" class="edge">
<title>components/collection&#45;preview/collection&#45;preview.component.jsx&#45;&gt;components/collection&#45;item/collection&#45;item.jsx</title>
<path fill="none" stroke="#757575" d="M938.79,-54.05C963.15,-54.05 987.72,-54.05 1011.27,-54.05"/>
<polygon fill="#757575" stroke="#757575" points="1011.3,-57.55 1021.3,-54.05 1011.3,-50.55 1011.3,-57.55"/>
</g>
<!-- components/collection&#45;preview/collection&#45;preview.styles.scss -->
<g id="node12" class="node">
<title>components/collection&#45;preview/collection&#45;preview.styles.scss</title>
<path fill="none" stroke="#cfffac" d="M1360.15,-24.15C1360.15,-24.15 982.52,-24.15 982.52,-24.15 978.49,-24.15 974.46,-20.12 974.46,-16.08 974.46,-16.08 974.46,-8.02 974.46,-8.02 974.46,-3.98 978.49,0.05 982.52,0.05 982.52,0.05 1360.15,0.05 1360.15,0.05 1364.18,0.05 1368.21,-3.98 1368.21,-8.02 1368.21,-8.02 1368.21,-16.08 1368.21,-16.08 1368.21,-20.12 1364.18,-24.15 1360.15,-24.15"/>
<text text-anchor="middle" x="1171.33" y="-8.9" font-family="Arial" font-size="14.00" fill="#cfffac">components/collection&#45;preview/collection&#45;preview.styles.scss</text>
</g>
<!-- components/collection&#45;preview/collection&#45;preview.component.jsx&#45;&gt;components/collection&#45;preview/collection&#45;preview.styles.scss -->
<g id="edge9" class="edge">
<title>components/collection&#45;preview/collection&#45;preview.component.jsx&#45;&gt;components/collection&#45;preview/collection&#45;preview.styles.scss</title>
<path fill="none" stroke="#757575" d="M857.66,-41.99C912.94,-36.69 977.95,-30.47 1034.33,-25.07"/>
<polygon fill="#757575" stroke="#757575" points="1034.77,-28.54 1044.39,-24.11 1034.1,-21.58 1034.77,-28.54"/>
</g>
<!-- components/custom&#45;button/custom&#45;button.component.jsx -->
<g id="node13" class="node">
<title>components/custom&#45;button/custom&#45;button.component.jsx</title>
<path fill="none" stroke="#c6c5fe" d="M1348.89,-276.15C1348.89,-276.15 993.77,-276.15 993.77,-276.15 989.74,-276.15 985.71,-272.12 985.71,-268.08 985.71,-268.08 985.71,-260.02 985.71,-260.02 985.71,-255.98 989.74,-251.95 993.77,-251.95 993.77,-251.95 1348.89,-251.95 1348.89,-251.95 1352.93,-251.95 1356.96,-255.98 1356.96,-260.02 1356.96,-260.02 1356.96,-268.08 1356.96,-268.08 1356.96,-272.12 1352.93,-276.15 1348.89,-276.15"/>
<text text-anchor="middle" x="1171.33" y="-260.9" font-family="Arial" font-size="14.00" fill="#c6c5fe">components/custom&#45;button/custom&#45;button.component.jsx</text>
</g>
<!-- components/custom&#45;button/custom&#45;button.styles.scss -->
<g id="node14" class="node">
<title>components/custom&#45;button/custom&#45;button.styles.scss</title>
<path fill="none" stroke="#cfffac" d="M1745.77,-276.15C1745.77,-276.15 1412.84,-276.15 1412.84,-276.15 1408.8,-276.15 1404.77,-272.12 1404.77,-268.08 1404.77,-268.08 1404.77,-260.02 1404.77,-260.02 1404.77,-255.98 1408.8,-251.95 1412.84,-251.95 1412.84,-251.95 1745.77,-251.95 1745.77,-251.95 1749.8,-251.95 1753.84,-255.98 1753.84,-260.02 1753.84,-260.02 1753.84,-268.08 1753.84,-268.08 1753.84,-272.12 1749.8,-276.15 1745.77,-276.15"/>
<text text-anchor="middle" x="1579.3" y="-260.9" font-family="Arial" font-size="14.00" fill="#cfffac">components/custom&#45;button/custom&#45;button.styles.scss</text>
</g>
<!-- components/custom&#45;button/custom&#45;button.component.jsx&#45;&gt;components/custom&#45;button/custom&#45;button.styles.scss -->
<g id="edge10" class="edge">
<title>components/custom&#45;button/custom&#45;button.component.jsx&#45;&gt;components/custom&#45;button/custom&#45;button.styles.scss</title>
<path fill="none" stroke="#757575" d="M1357.2,-264.05C1369.55,-264.05 1381.98,-264.05 1394.32,-264.05"/>
<polygon fill="#757575" stroke="#757575" points="1394.66,-267.55 1404.66,-264.05 1394.66,-260.55 1394.66,-267.55"/>
</g>
<!-- components/directory/directory.styles.scss -->
<g id="node16" class="node">
<title>components/directory/directory.styles.scss</title>
<path fill="none" stroke="#cfffac" d="M1302.21,-150.15C1302.21,-150.15 1040.46,-150.15 1040.46,-150.15 1036.43,-150.15 1032.39,-146.12 1032.39,-142.08 1032.39,-142.08 1032.39,-134.02 1032.39,-134.02 1032.39,-129.98 1036.43,-125.95 1040.46,-125.95 1040.46,-125.95 1302.21,-125.95 1302.21,-125.95 1306.24,-125.95 1310.27,-129.98 1310.27,-134.02 1310.27,-134.02 1310.27,-142.08 1310.27,-142.08 1310.27,-146.12 1306.24,-150.15 1302.21,-150.15"/>
<text text-anchor="middle" x="1171.33" y="-134.9" font-family="Arial" font-size="14.00" fill="#cfffac">components/directory/directory.styles.scss</text>
</g>
<!-- components/directory/directory.component.jsx&#45;&gt;components/directory/directory.styles.scss -->
<g id="edge11" class="edge">
<title>components/directory/directory.component.jsx&#45;&gt;components/directory/directory.styles.scss</title>
<path fill="none" stroke="#757575" d="M880.79,-138.05C926.39,-138.05 976.53,-138.05 1022.08,-138.05"/>
<polygon fill="#757575" stroke="#757575" points="1022.33,-141.55 1032.33,-138.05 1022.33,-134.55 1022.33,-141.55"/>
</g>
<!-- components/menu&#45;item/menu&#45;item.component.jsx -->
<g id="node17" class="node">
<title>components/menu&#45;item/menu&#45;item.component.jsx</title>
<path fill="none" stroke="#c6c5fe" d="M1326.74,-108.15C1326.74,-108.15 1015.93,-108.15 1015.93,-108.15 1011.9,-108.15 1007.87,-104.12 1007.87,-100.08 1007.87,-100.08 1007.87,-92.02 1007.87,-92.02 1007.87,-87.98 1011.9,-83.95 1015.93,-83.95 1015.93,-83.95 1326.74,-83.95 1326.74,-83.95 1330.77,-83.95 1334.8,-87.98 1334.8,-92.02 1334.8,-92.02 1334.8,-100.08 1334.8,-100.08 1334.8,-104.12 1330.77,-108.15 1326.74,-108.15"/>
<text text-anchor="middle" x="1171.33" y="-92.9" font-family="Arial" font-size="14.00" fill="#c6c5fe">components/menu&#45;item/menu&#45;item.component.jsx</text>
</g>
<!-- components/directory/directory.component.jsx&#45;&gt;components/menu&#45;item/menu&#45;item.component.jsx -->
<g id="edge12" class="edge">
<title>components/directory/directory.component.jsx&#45;&gt;components/menu&#45;item/menu&#45;item.component.jsx</title>
<path fill="none" stroke="#757575" d="M857.66,-125.99C912.94,-120.69 977.95,-114.47 1034.33,-109.07"/>
<polygon fill="#757575" stroke="#757575" points="1034.77,-112.54 1044.39,-108.11 1034.1,-105.58 1034.77,-112.54"/>
</g>
<!-- components/menu&#45;item/menu&#45;items.styles.scss -->
<g id="node21" class="node">
<title>components/menu&#45;item/menu&#45;items.styles.scss</title>
<path fill="none" stroke="#cfffac" d="M1726.61,-108.15C1726.61,-108.15 1432,-108.15 1432,-108.15 1427.96,-108.15 1423.93,-104.12 1423.93,-100.08 1423.93,-100.08 1423.93,-92.02 1423.93,-92.02 1423.93,-87.98 1427.96,-83.95 1432,-83.95 1432,-83.95 1726.61,-83.95 1726.61,-83.95 1730.65,-83.95 1734.68,-87.98 1734.68,-92.02 1734.68,-92.02 1734.68,-100.08 1734.68,-100.08 1734.68,-104.12 1730.65,-108.15 1726.61,-108.15"/>
<text text-anchor="middle" x="1579.3" y="-92.9" font-family="Arial" font-size="14.00" fill="#cfffac">components/menu&#45;item/menu&#45;items.styles.scss</text>
</g>
<!-- components/menu&#45;item/menu&#45;item.component.jsx&#45;&gt;components/menu&#45;item/menu&#45;items.styles.scss -->
<g id="edge16" class="edge">
<title>components/menu&#45;item/menu&#45;item.component.jsx&#45;&gt;components/menu&#45;item/menu&#45;items.styles.scss</title>
<path fill="none" stroke="#757575" d="M1334.83,-96.05C1360.74,-96.05 1387.58,-96.05 1413.55,-96.05"/>
<polygon fill="#757575" stroke="#757575" points="1413.84,-99.55 1423.84,-96.05 1413.84,-92.55 1413.84,-99.55"/>
</g>
<!-- components/form&#45;input/form&#45;input.component.jsx -->
<g id="node18" class="node">
<title>components/form&#45;input/form&#45;input.component.jsx</title>
<path fill="none" stroke="#c6c5fe" d="M1323.51,-234.15C1323.51,-234.15 1019.15,-234.15 1019.15,-234.15 1015.12,-234.15 1011.09,-230.12 1011.09,-226.08 1011.09,-226.08 1011.09,-218.02 1011.09,-218.02 1011.09,-213.98 1015.12,-209.95 1019.15,-209.95 1019.15,-209.95 1323.51,-209.95 1323.51,-209.95 1327.55,-209.95 1331.58,-213.98 1331.58,-218.02 1331.58,-218.02 1331.58,-226.08 1331.58,-226.08 1331.58,-230.12 1327.55,-234.15 1323.51,-234.15"/>
<text text-anchor="middle" x="1171.33" y="-218.9" font-family="Arial" font-size="14.00" fill="#c6c5fe">components/form&#45;input/form&#45;input.component.jsx</text>
</g>
<!-- components/form&#45;input/form&#45;input.styles.scss -->
<g id="node19" class="node">
<title>components/form&#45;input/form&#45;input.styles.scss</title>
<path fill="none" stroke="#cfffac" d="M1719.89,-234.15C1719.89,-234.15 1438.72,-234.15 1438.72,-234.15 1434.68,-234.15 1430.65,-230.12 1430.65,-226.08 1430.65,-226.08 1430.65,-218.02 1430.65,-218.02 1430.65,-213.98 1434.68,-209.95 1438.72,-209.95 1438.72,-209.95 1719.89,-209.95 1719.89,-209.95 1723.93,-209.95 1727.96,-213.98 1727.96,-218.02 1727.96,-218.02 1727.96,-226.08 1727.96,-226.08 1727.96,-230.12 1723.93,-234.15 1719.89,-234.15"/>
<text text-anchor="middle" x="1579.3" y="-218.9" font-family="Arial" font-size="14.00" fill="#cfffac">components/form&#45;input/form&#45;input.styles.scss</text>
</g>
<!-- components/form&#45;input/form&#45;input.component.jsx&#45;&gt;components/form&#45;input/form&#45;input.styles.scss -->
<g id="edge13" class="edge">
<title>components/form&#45;input/form&#45;input.component.jsx&#45;&gt;components/form&#45;input/form&#45;input.styles.scss</title>
<path fill="none" stroke="#757575" d="M1331.62,-222.05C1360.73,-222.05 1391.1,-222.05 1420.18,-222.05"/>
<polygon fill="#757575" stroke="#757575" points="1420.4,-225.55 1430.4,-222.05 1420.4,-218.55 1420.4,-225.55"/>
</g>
<!-- components/sign&#45;in/sign&#45;in.component.jsx&#45;&gt;firebase/firebase.utils.js -->
<g id="edge20" class="edge">
<title>components/sign&#45;in/sign&#45;in.component.jsx&#45;&gt;firebase/firebase.utils.js</title>
<path fill="none" stroke="#757575" d="M869.11,-226.15C893.13,-230.5 917.25,-237.39 938.64,-248.05 959.18,-258.28 954.01,-275.01 974.64,-285.05 1006.8,-300.7 1045.38,-307.07 1079.74,-309.12"/>
<polygon fill="#757575" stroke="#757575" points="1079.63,-312.62 1089.79,-309.61 1079.97,-305.63 1079.63,-312.62"/>
</g>
<!-- components/sign&#45;in/sign&#45;in.component.jsx&#45;&gt;components/custom&#45;button/custom&#45;button.component.jsx -->
<g id="edge17" class="edge">
<title>components/sign&#45;in/sign&#45;in.component.jsx&#45;&gt;components/custom&#45;button/custom&#45;button.component.jsx</title>
<path fill="none" stroke="#757575" d="M857.66,-234.11C912.94,-239.41 977.95,-245.63 1034.33,-251.03"/>
<polygon fill="#757575" stroke="#757575" points="1034.1,-254.52 1044.39,-251.99 1034.77,-247.55 1034.1,-254.52"/>
</g>
<!-- components/sign&#45;in/sign&#45;in.component.jsx&#45;&gt;components/form&#45;input/form&#45;input.component.jsx -->
<g id="edge18" class="edge">
<title>components/sign&#45;in/sign&#45;in.component.jsx&#45;&gt;components/form&#45;input/form&#45;input.component.jsx</title>
<path fill="none" stroke="#757575" d="M868.95,-222.05C910.81,-222.05 957.32,-222.05 1001.03,-222.05"/>
<polygon fill="#757575" stroke="#757575" points="1001.19,-225.55 1011.19,-222.05 1001.19,-218.55 1001.19,-225.55"/>
</g>
<!-- components/sign&#45;in/sign&#45;in.styles.scss -->
<g id="node23" class="node">
<title>components/sign&#45;in/sign&#45;in.styles.scss</title>
<path fill="none" stroke="#cfffac" d="M1290.36,-192.15C1290.36,-192.15 1052.3,-192.15 1052.3,-192.15 1048.27,-192.15 1044.24,-188.12 1044.24,-184.08 1044.24,-184.08 1044.24,-176.02 1044.24,-176.02 1044.24,-171.98 1048.27,-167.95 1052.3,-167.95 1052.3,-167.95 1290.36,-167.95 1290.36,-167.95 1294.4,-167.95 1298.43,-171.98 1298.43,-176.02 1298.43,-176.02 1298.43,-184.08 1298.43,-184.08 1298.43,-188.12 1294.4,-192.15 1290.36,-192.15"/>
<text text-anchor="middle" x="1171.33" y="-176.9" font-family="Arial" font-size="14.00" fill="#cfffac">components/sign&#45;in/sign&#45;in.styles.scss</text>
</g>
<!-- components/sign&#45;in/sign&#45;in.component.jsx&#45;&gt;components/sign&#45;in/sign&#45;in.styles.scss -->
<g id="edge19" class="edge">
<title>components/sign&#45;in/sign&#45;in.component.jsx&#45;&gt;components/sign&#45;in/sign&#45;in.styles.scss</title>
<path fill="none" stroke="#757575" d="M857.66,-209.99C912.94,-204.69 977.95,-198.47 1034.33,-193.07"/>
<polygon fill="#757575" stroke="#757575" points="1034.77,-196.54 1044.39,-192.11 1034.1,-189.58 1034.77,-196.54"/>
</g>
</g>
</svg>
