<?xml version="1.0" encoding="UTF-8" standalone="no"?>
<!DOCTYPE svg PUBLIC "-//W3C//DTD SVG 1.1//EN"
 "http://www.w3.org/Graphics/SVG/1.1/DTD/svg11.dtd">
<!-- Generated by graphviz version 2.43.0 (0)
 -->
<!-- Title: G Pages: 1 -->
<svg width="1678pt" height="172pt"
 viewBox="0.00 0.00 1677.91 172.30" xmlns="http://www.w3.org/2000/svg" xmlns:xlink="http://www.w3.org/1999/xlink">
<g id="graph0" class="graph" transform="scale(1 1) rotate(0) translate(21.6 150.7)">
<title>G</title>
<polygon fill="#111111" stroke="transparent" points="-21.6,21.6 -21.6,-150.7 1656.31,-150.7 1656.31,21.6 -21.6,21.6"/>
<!-- ../../redux/cart/cart.actions.js -->
<g id="node1" class="node">
<title>../../redux/cart/cart.actions.js</title>
<path fill="none" stroke="#c6c5fe" d="M1254.09,-129.15C1254.09,-129.15 1079.1,-129.15 1079.1,-129.15 1075.06,-129.15 1071.03,-125.12 1071.03,-121.08 1071.03,-121.08 1071.03,-113.02 1071.03,-113.02 1071.03,-108.98 1075.06,-104.95 1079.1,-104.95 1079.1,-104.95 1254.09,-104.95 1254.09,-104.95 1258.12,-104.95 1262.15,-108.98 1262.15,-113.02 1262.15,-113.02 1262.15,-121.08 1262.15,-121.08 1262.15,-125.12 1258.12,-129.15 1254.09,-129.15"/>
<text text-anchor="middle" x="1166.59" y="-113.9" font-family="Arial" font-size="14.00" fill="#c6c5fe">../../redux/cart/cart.actions.js</text>
</g>
<!-- ../../redux/cart/cart.types.js -->
<g id="node2" class="node">
<title>../../redux/cart/cart.types.js</title>
<path fill="none" stroke="#cfffac" d="M1576.53,-129.15C1576.53,-129.15 1412.33,-129.15 1412.33,-129.15 1408.3,-129.15 1404.27,-125.12 1404.27,-121.08 1404.27,-121.08 1404.27,-113.02 1404.27,-113.02 1404.27,-108.98 1408.3,-104.95 1412.33,-104.95 1412.33,-104.95 1576.53,-104.95 1576.53,-104.95 1580.57,-104.95 1584.6,-108.98 1584.6,-113.02 1584.6,-113.02 1584.6,-121.08 1584.6,-121.08 1584.6,-125.12 1580.57,-129.15 1576.53,-129.15"/>
<text text-anchor="middle" x="1494.43" y="-113.9" font-family="Arial" font-size="14.00" fill="#cfffac">../../redux/cart/cart.types.js</text>
</g>
<!-- ../../redux/cart/cart.actions.js&#45;&gt;../../redux/cart/cart.types.js -->
<g id="edge1" class="edge">
<title>../../redux/cart/cart.actions.js&#45;&gt;../../redux/cart/cart.types.js</title>
<path fill="none" stroke="#757575" d="M1262.28,-117.05C1303.59,-117.05 1352.05,-117.05 1393.9,-117.05"/>
<polygon fill="#757575" stroke="#757575" points="1394.11,-120.55 1404.11,-117.05 1394.11,-113.55 1394.11,-120.55"/>
</g>
<!-- ../../redux/shop/shop.selectors.js -->
<g id="node3" class="node">
<title>../../redux/shop/shop.selectors.js</title>
<path fill="none" stroke="#cfffac" d="M544.59,-108.15C544.59,-108.15 344.2,-108.15 344.2,-108.15 340.16,-108.15 336.13,-104.12 336.13,-100.08 336.13,-100.08 336.13,-92.02 336.13,-92.02 336.13,-87.98 340.16,-83.95 344.2,-83.95 344.2,-83.95 544.59,-83.95 544.59,-83.95 548.63,-83.95 552.66,-87.98 552.66,-92.02 552.66,-92.02 552.66,-100.08 552.66,-100.08 552.66,-104.12 548.63,-108.15 544.59,-108.15"/>
<text text-anchor="middle" x="444.4" y="-92.9" font-family="Arial" font-size="14.00" fill="#cfffac">../../redux/shop/shop.selectors.js</text>
</g>
<!-- ../collection&#45;item/collection&#45;item.jsx -->
<g id="node4" class="node">
<title>../collection&#45;item/collection&#45;item.jsx</title>
<path fill="none" stroke="#c6c5fe" d="M924.02,-87.15C924.02,-87.15 709.14,-87.15 709.14,-87.15 705.1,-87.15 701.07,-83.12 701.07,-79.08 701.07,-79.08 701.07,-71.02 701.07,-71.02 701.07,-66.98 705.1,-62.95 709.14,-62.95 709.14,-62.95 924.02,-62.95 924.02,-62.95 928.06,-62.95 932.09,-66.98 932.09,-71.02 932.09,-71.02 932.09,-79.08 932.09,-79.08 932.09,-83.12 928.06,-87.15 924.02,-87.15"/>
<text text-anchor="middle" x="816.58" y="-71.9" font-family="Arial" font-size="14.00" fill="#c6c5fe">../collection&#45;item/collection&#45;item.jsx</text>
</g>
<!-- ../collection&#45;item/collection&#45;item.jsx&#45;&gt;../../redux/cart/cart.actions.js -->
<g id="edge2" class="edge">
<title>../collection&#45;item/collection&#45;item.jsx&#45;&gt;../../redux/cart/cart.actions.js</title>
<path fill="none" stroke="#757575" d="M917.77,-87.14C962.58,-92.55 1015.39,-98.92 1060.73,-104.39"/>
<polygon fill="#757575" stroke="#757575" points="1060.54,-107.9 1070.88,-105.62 1061.38,-100.95 1060.54,-107.9"/>
</g>
<!-- ../collection&#45;item/collection&#45;item.styles.scss -->
<g id="node5" class="node">
<title>../collection&#45;item/collection&#45;item.styles.scss</title>
<path fill="none" stroke="#cfffac" d="M1299.6,-87.15C1299.6,-87.15 1033.58,-87.15 1033.58,-87.15 1029.55,-87.15 1025.52,-83.12 1025.52,-79.08 1025.52,-79.08 1025.52,-71.02 1025.52,-71.02 1025.52,-66.98 1029.55,-62.95 1033.58,-62.95 1033.58,-62.95 1299.6,-62.95 1299.6,-62.95 1303.64,-62.95 1307.67,-66.98 1307.67,-71.02 1307.67,-71.02 1307.67,-79.08 1307.67,-79.08 1307.67,-83.12 1303.64,-87.15 1299.6,-87.15"/>
<text text-anchor="middle" x="1166.59" y="-71.9" font-family="Arial" font-size="14.00" fill="#cfffac">../collection&#45;item/collection&#45;item.styles.scss</text>
</g>
<!-- ../collection&#45;item/collection&#45;item.jsx&#45;&gt;../collection&#45;item/collection&#45;item.styles.scss -->
<g id="edge3" class="edge">
<title>../collection&#45;item/collection&#45;item.jsx&#45;&gt;../collection&#45;item/collection&#45;item.styles.scss</title>
<path fill="none" stroke="#757575" d="M932.5,-75.05C958.95,-75.05 987.46,-75.05 1015.17,-75.05"/>
<polygon fill="#757575" stroke="#757575" points="1015.33,-78.55 1025.33,-75.05 1015.33,-71.55 1015.33,-78.55"/>
</g>
<!-- ../custom&#45;button/custom&#45;button.component.jsx -->
<g id="node6" class="node">
<title>../custom&#45;button/custom&#45;button.component.jsx</title>
<path fill="none" stroke="#c6c5fe" d="M1310.16,-45.15C1310.16,-45.15 1023.02,-45.15 1023.02,-45.15 1018.99,-45.15 1014.96,-41.12 1014.96,-37.08 1014.96,-37.08 1014.96,-29.02 1014.96,-29.02 1014.96,-24.98 1018.99,-20.95 1023.02,-20.95 1023.02,-20.95 1310.16,-20.95 1310.16,-20.95 1314.2,-20.95 1318.23,-24.98 1318.23,-29.02 1318.23,-29.02 1318.23,-37.08 1318.23,-37.08 1318.23,-41.12 1314.2,-45.15 1310.16,-45.15"/>
<text text-anchor="middle" x="1166.59" y="-29.9" font-family="Arial" font-size="14.00" fill="#c6c5fe">../custom&#45;button/custom&#45;button.component.jsx</text>
</g>
<!-- ../collection&#45;item/collection&#45;item.jsx&#45;&gt;../custom&#45;button/custom&#45;button.component.jsx -->
<g id="edge4" class="edge">
<title>../collection&#45;item/collection&#45;item.jsx&#45;&gt;../custom&#45;button/custom&#45;button.component.jsx</title>
<path fill="none" stroke="#757575" d="M917.77,-62.96C960.81,-57.76 1011.23,-51.68 1055.32,-46.36"/>
<polygon fill="#757575" stroke="#757575" points="1056,-49.8 1065.5,-45.13 1055.16,-42.85 1056,-49.8"/>
</g>
<!-- ../custom&#45;button/custom&#45;button.styles.scss -->
<g id="node9" class="node">
<title>../custom&#45;button/custom&#45;button.styles.scss</title>
<path fill="none" stroke="#cfffac" d="M1626.41,-45.15C1626.41,-45.15 1362.45,-45.15 1362.45,-45.15 1358.42,-45.15 1354.39,-41.12 1354.39,-37.08 1354.39,-37.08 1354.39,-29.02 1354.39,-29.02 1354.39,-24.98 1358.42,-20.95 1362.45,-20.95 1362.45,-20.95 1626.41,-20.95 1626.41,-20.95 1630.44,-20.95 1634.48,-24.98 1634.48,-29.02 1634.48,-29.02 1634.48,-37.08 1634.48,-37.08 1634.48,-41.12 1630.44,-45.15 1626.41,-45.15"/>
<text text-anchor="middle" x="1494.43" y="-29.9" font-family="Arial" font-size="14.00" fill="#cfffac">../custom&#45;button/custom&#45;button.styles.scss</text>
</g>
<!-- ../custom&#45;button/custom&#45;button.component.jsx&#45;&gt;../custom&#45;button/custom&#45;button.styles.scss -->
<g id="edge7" class="edge">
<title>../custom&#45;button/custom&#45;button.component.jsx&#45;&gt;../custom&#45;button/custom&#45;button.styles.scss</title>
<path fill="none" stroke="#757575" d="M1318.59,-33.05C1326.99,-33.05 1335.44,-33.05 1343.84,-33.05"/>
<polygon fill="#757575" stroke="#757575" points="1344.05,-36.55 1354.05,-33.05 1344.05,-29.55 1344.05,-36.55"/>
</g>
<!-- ../collection&#45;preview/collection&#45;preview.component.jsx -->
<g id="node7" class="node">
<title>../collection&#45;preview/collection&#45;preview.component.jsx</title>
<path fill="none" stroke="#c6c5fe" d="M610.31,-66.15C610.31,-66.15 278.48,-66.15 278.48,-66.15 274.45,-66.15 270.41,-62.12 270.41,-58.08 270.41,-58.08 270.41,-50.02 270.41,-50.02 270.41,-45.98 274.45,-41.95 278.48,-41.95 278.48,-41.95 610.31,-41.95 610.31,-41.95 614.34,-41.95 618.38,-45.98 618.38,-50.02 618.38,-50.02 618.38,-58.08 618.38,-58.08 618.38,-62.12 614.34,-66.15 610.31,-66.15"/>
<text text-anchor="middle" x="444.4" y="-50.9" font-family="Arial" font-size="14.00" fill="#c6c5fe">../collection&#45;preview/collection&#45;preview.component.jsx</text>
</g>
<!-- ../collection&#45;preview/collection&#45;preview.component.jsx&#45;&gt;../collection&#45;item/collection&#45;item.jsx -->
<g id="edge5" class="edge">
<title>../collection&#45;preview/collection&#45;preview.component.jsx&#45;&gt;../collection&#45;item/collection&#45;item.jsx</title>
<path fill="none" stroke="#757575" d="M618.29,-63.86C642.74,-65.24 667.47,-66.65 690.77,-67.97"/>
<polygon fill="#757575" stroke="#757575" points="690.83,-71.48 701.01,-68.55 691.22,-64.49 690.83,-71.48"/>
</g>
<!-- ../collection&#45;preview/collection&#45;preview.styles.scss -->
<g id="node8" class="node">
<title>../collection&#45;preview/collection&#45;preview.styles.scss</title>
<path fill="none" stroke="#cfffac" d="M970.9,-45.15C970.9,-45.15 662.26,-45.15 662.26,-45.15 658.22,-45.15 654.19,-41.12 654.19,-37.08 654.19,-37.08 654.19,-29.02 654.19,-29.02 654.19,-24.98 658.22,-20.95 662.26,-20.95 662.26,-20.95 970.9,-20.95 970.9,-20.95 974.94,-20.95 978.97,-24.98 978.97,-29.02 978.97,-29.02 978.97,-37.08 978.97,-37.08 978.97,-41.12 974.94,-45.15 970.9,-45.15"/>
<text text-anchor="middle" x="816.58" y="-29.9" font-family="Arial" font-size="14.00" fill="#cfffac">../collection&#45;preview/collection&#45;preview.styles.scss</text>
</g>
<!-- ../collection&#45;preview/collection&#45;preview.component.jsx&#45;&gt;../collection&#45;preview/collection&#45;preview.styles.scss -->
<g id="edge6" class="edge">
<title>../collection&#45;preview/collection&#45;preview.component.jsx&#45;&gt;../collection&#45;preview/collection&#45;preview.styles.scss</title>
<path fill="none" stroke="#757575" d="M618.29,-44.24C626.89,-43.75 635.52,-43.26 644.11,-42.78"/>
<polygon fill="#757575" stroke="#757575" points="644.39,-46.27 654.18,-42.21 643.99,-39.28 644.39,-46.27"/>
</g>
<!-- collections&#45;overview.component.jsx -->
<g id="node10" class="node">
<title>collections&#45;overview.component.jsx</title>
<path fill="none" stroke="#c6c5fe" d="M226.42,-66.15C226.42,-66.15 8.24,-66.15 8.24,-66.15 4.21,-66.15 0.17,-62.12 0.17,-58.08 0.17,-58.08 0.17,-50.02 0.17,-50.02 0.17,-45.98 4.21,-41.95 8.24,-41.95 8.24,-41.95 226.42,-41.95 226.42,-41.95 230.45,-41.95 234.48,-45.98 234.48,-50.02 234.48,-50.02 234.48,-58.08 234.48,-58.08 234.48,-62.12 230.45,-66.15 226.42,-66.15"/>
<text text-anchor="middle" x="117.33" y="-50.9" font-family="Arial" font-size="14.00" fill="#c6c5fe">collections&#45;overview.component.jsx</text>
</g>
<!-- collections&#45;overview.component.jsx&#45;&gt;../../redux/shop/shop.selectors.js -->
<g id="edge8" class="edge">
<title>collections&#45;overview.component.jsx&#45;&gt;../../redux/shop/shop.selectors.js</title>
<path fill="none" stroke="#757575" d="M204.09,-66.12C225.8,-69.11 249.08,-72.25 270.65,-75.05 290.48,-77.62 311.6,-80.27 332.01,-82.77"/>
<polygon fill="#757575" stroke="#757575" points="331.62,-86.25 341.97,-83.99 332.47,-79.3 331.62,-86.25"/>
</g>
<!-- collections&#45;overview.component.jsx&#45;&gt;../collection&#45;preview/collection&#45;preview.component.jsx -->
<g id="edge9" class="edge">
<title>collections&#45;overview.component.jsx&#45;&gt;../collection&#45;preview/collection&#45;preview.component.jsx</title>
<path fill="none" stroke="#757575" d="M234.77,-54.05C243.15,-54.05 251.7,-54.05 260.34,-54.05"/>
<polygon fill="#757575" stroke="#757575" points="260.51,-57.55 270.51,-54.05 260.51,-50.55 260.51,-57.55"/>
</g>
<!-- collections&#45;overview.styles.scss -->
<g id="node11" class="node">
<title>collections&#45;overview.styles.scss</title>
<path fill="none" stroke="#cfffac" d="M542.39,-24.15C542.39,-24.15 346.4,-24.15 346.4,-24.15 342.37,-24.15 338.33,-20.12 338.33,-16.08 338.33,-16.08 338.33,-8.02 338.33,-8.02 338.33,-3.98 342.37,0.05 346.4,0.05 346.4,0.05 542.39,0.05 542.39,0.05 546.42,0.05 550.46,-3.98 550.46,-8.02 550.46,-8.02 550.46,-16.08 550.46,-16.08 550.46,-20.12 546.42,-24.15 542.39,-24.15"/>
<text text-anchor="middle" x="444.4" y="-8.9" font-family="Arial" font-size="14.00" fill="#cfffac">collections&#45;overview.styles.scss</text>
</g>
<!-- collections&#45;overview.component.jsx&#45;&gt;collections&#45;overview.styles.scss -->
<g id="edge10" class="edge">
<title>collections&#45;overview.component.jsx&#45;&gt;collections&#45;overview.styles.scss</title>
<path fill="none" stroke="#757575" d="M204.09,-41.98C225.8,-38.99 249.08,-35.85 270.65,-33.05 290.48,-30.48 311.6,-27.83 332.01,-25.32"/>
<polygon fill="#757575" stroke="#757575" points="332.47,-28.79 341.97,-24.1 331.62,-21.85 332.47,-28.79"/>
</g>
</g>
</svg>
